<?xml version="1.0" encoding="utf-8"?>
<!-- Generator: Adobe Illustrator 18.1.0, SVG Export Plug-In . SVG Version: 6.00 Build 0)  -->
<svg version="1.1" id="Livello_1" xmlns="http://www.w3.org/2000/svg" xmlns:xlink="http://www.w3.org/1999/xlink" x="0px" y="0px"
	 viewBox="0 0 1190.6 841.9" enable-background="new 0 0 1190.6 841.9" xml:space="preserve">
<circle fill="#FFFFFF" cx="595.3" cy="420.9" r="420.9"/>
<g>
	<g>
		<defs>
			<circle id="SVGID_1_" cx="595.3" cy="420.9" r="420.9"/>
		</defs>
		<clipPath id="SVGID_2_">
			<use xlink:href="#SVGID_1_"  overflow="visible"/>
		</clipPath>
		<g clip-path="url(#SVGID_2_)">
			<g>
				<path fill="#FEC49C" d="M682.1,601.3c-4,16.7-8,54.1-1.3,72.2c2.7,6.7,129.6,55.5,145,61.5c31.4,12.7,59.5,25.4,71.5,38.8
					c13.4,14.7,23.4,40.1,23.4,74.2c-257.9,0-392.9,0-650.1,0c0-34.1,10-59.5,23.4-74.2c12-12.7,39.4-26.1,71.5-38.8
					c15.4-6,142.3-54.8,145-61.5c6.7-18,2.7-55.5-1.3-72.2C612,546.6,577.9,546.6,682.1,601.3z"/>
				<path fill="#D2A588" d="M714.2,690.2c0,0-35.4,50.1-62.8,53.5c-41.4,4.7-51.4-9.4-78.8-36.1c-22.7-22.7-50.8-52.8-59.5-73.5
					c0,0-4.7-41.4-8-48.1c-3.3-6.7,76.8-36.7,76.8-36.7l80.8-1.3l19.4,53.5c0,0-10,50.8-1.3,72.2L714.2,690.2z"/>
				<g>
					<path fill="#FEC49C" d="M458.3,493.1c0,0-24.7,7.3-42.1-13.4s-50.1-117.6,25.4-104.2L458.3,493.1z"/>
					<path fill="#FEC49C" d="M728.2,493.1c0,0,24.7,7.3,42.1-13.4c17.4-20.7,50.1-117.6-25.4-104.2L728.2,493.1z"/>
					<path fill="#FEC49C" d="M678.8,618.1c-74.2,79.5-96.2,79.5-170.4,0C459,565.3,451,509.8,447.6,444.3
						c-3.3-58.8-19.4-140.3,12.7-179.1c50.8-60.8,215.8-60.8,266.6,0c32.1,38.8,16,119.6,12.7,179.1
						C736.3,509.1,728.2,564.6,678.8,618.1z"/>
				</g>
			</g>
			<path fill="#353634" d="M434.2,436.3h12.7c0,0-21.4-159,39.4-191.8s241.9,22,258.6,67.5l-4.7,124.3h13.4l15.4-60.1
				c0,0,12-100.2,8.7-109.6c-2.7-9.4-2-83.5-166.4-124.3c0,0-127-26.7-172.4,65.5c0,0-6.7,16.7-4,38.8c0,0-29.4,4-27.4,54.8
				C409.5,352.1,434.2,436.3,434.2,436.3z"/>
			<path fill="#C4495E" d="M708.9,687.5c38.8,16.7,106.2,43.4,116.9,47.4c31.4,12.7,59.5,25.4,71.5,38.8
				c13.4,14.7,23.4,40.1,23.4,74.2c-257.9,0-392.9,0-650.1,0c0-34.1,10-59.5,23.4-74.2c12-12.7,39.4-26.1,71.5-38.8
				c10.7-4,78.8-30.7,117.6-47.4c20,46.8,62.8,78.8,112.9,78.8C645.4,766.4,688.8,734.3,708.9,687.5z"/>
			<path fill="#A64358" d="M720.2,692.2c-20.7,52.1-69.5,86.2-124.3,86.2s-103.6-34.1-124.3-86.2l11.4-4.7
				c22.7,44.1,60.1,78.8,113.6,78.8c53.5,0,92.9-34.7,112.3-78.8L720.2,692.2z"/>
		</g>
	</g>
</g>
</svg>
