<?xml version="1.0" encoding="utf-8"?>
<!-- Generator: Adobe Illustrator 18.1.0, SVG Export Plug-In . SVG Version: 6.00 Build 0)  -->
<svg version="1.1" id="Livello_1" xmlns="http://www.w3.org/2000/svg" xmlns:xlink="http://www.w3.org/1999/xlink" x="0px" y="0px"
	 viewBox="0 0 1190.6 841.9" enable-background="new 0 0 1190.6 841.9" xml:space="preserve">
<circle fill="#FFFFFF" cx="601.3" cy="421.6" r="420.9"/>
<g>
	<g>
		<defs>
			<circle id="SVGID_1_" cx="601.3" cy="421.6" r="420.9"/>
		</defs>
		<clipPath id="SVGID_2_">
			<use xlink:href="#SVGID_1_"  overflow="visible"/>
		</clipPath>
		<g clip-path="url(#SVGID_2_)">
			<g>
				<path fill="#FEC49C" d="M697.5,592.7c-4,16.7-8,55.5-1.3,73.5c2.7,6.7,132.3,56.1,147.7,62.8c32.1,12.7,60.1,26.1,72.2,39.4
					c13.4,14.7,24.1,40.8,24.1,75.5c-261.9,0-398.9,0-660.8,0c0-34.7,10-60.8,24.1-75.5c12-13.4,40.1-26.1,72.2-39.4
					c15.4-6,145-56.1,147.7-62.8c6.7-18,2.7-56.1-1.3-73.5C626.7,537.2,591.3,536.5,697.5,592.7z"/>
				<path fill="#D2A588" d="M730.2,682.9c0,0-36.1,50.8-64.1,54.1c-42.1,4.7-52.1-9.4-80.2-36.7c-23.4-22.7-51.4-53.5-60.1-74.8
					c0,0-4.7-42.1-8-48.8c-3.3-7.3,78.2-37.4,78.2-37.4l82.2-1.3l19.4,54.8c0,0-10,51.4-1.3,73.5L730.2,682.9z"/>
				<path fill="#FEC49C" d="M482.4,489.8c0,0-24.7,7.3-42.8-13.4c-18-21.4-50.8-118.9,26.1-105.6L482.4,489.8z"/>
				<path fill="#FEC49C" d="M736.9,489.8c0,0,24.7,7.3,42.8-13.4c18-21.4,50.8-118.9-26.1-105.6L736.9,489.8z"/>
				<path fill="#FEC49C" d="M694.2,609.4c-75.5,80.8-98.2,80.8-173.1,0C471,555.2,462.3,499.1,459,433
					c-3.3-60.1-19.4-142.3,13.4-181.7c51.4-61.5,219.2-61.5,271.3,0c32.7,39.4,16,121.6,13.4,181.7
					C752.3,499.1,744.3,555.2,694.2,609.4z"/>
			</g>
			<path fill="#0071BC" d="M704.9,671.5c32.1,15.4,125.6,52.1,138.3,56.8c32.1,12.7,60.1,26.1,72.2,39.4
				c13.4,14.7,24.1,40.8,24.1,75.5c-261.9,0-398.9,0-660.8,0c0-34.7,10-60.8,24.1-75.5c12-13.4,40.1-26.1,72.2-39.4
				c12.7-5.3,106.9-41.4,139-57.5l95.5,20.7L704.9,671.5z"/>
			<path fill="#EBEBEB" d="M525.8,630.7c-7.3-0.7-8.7,24.7-12,40.1c0,0,20,51.4,60.8,92.9c0,0,3.3,3.3,6,2.7c0.7,0,2.7-6.7,4.7-13.4
				c0.7-2,1.3-4,2-6c2-5.3,3.3-10.7,4-11.4c6.7-17.4,16-41.4,16.7-44.8h-0.7C585.3,684.9,526.5,650.8,525.8,630.7z"/>
			<path fill="#EBEBEB" d="M692.8,630.7c7.3-0.7,8.7,24.7,12,40.1c0,0-20,51.4-60.8,92.9c0,0-3.3,3.3-6,2.7
				c-0.7-0.7-10-28.1-10.7-30.1c-6.7-17.4-16-41.4-16.7-44.8C632,685.5,692.2,650.8,692.8,630.7z"/>
			<rect x="586.6" y="745" fill="#313536" width="44.1" height="97.6"/>
			<path fill="#23272A" d="M587.9,753.7c0,0,24.1-13.4,44.1,0.7c0,0,4,2,1.3-10.7c-2.7-12.7-13.4-51.4-22.7-52.1
				c-9.4,0-23.4,41.4-25.4,53.5C583.2,757,587.9,753.7,587.9,753.7z"/>
			<path fill="#604530" d="M442.9,303.3c0,0-28.7-16.7-0.7-88.2c28.1-71.5,133-100.9,199.8-68.8c0,0,63.5,19.4,106.2,60.1
				c0,0,14,25.4,13.4,38.8c0,0,22.7,14,23.4,32.7s-4,28.1-9.4,30.7v64.1c0,0-17.4,18.7-20,55.5c-2.7,36.7-6,65.5-6,65.5l-8.7,36.7
				l-5.3,68.2c-2,28.7-3.3,37.4-22.7,60.8c-16.7,20.7-44.1,46.1-84.2,56.1c-46.1,12-91.5-22.7-118.9-50.1
				c-23.4-23.4-24.7-27.4-27.4-57.5l-5.3-63.5l-13.4-51.4l-8-88.9c0,0-2.7-26.7-14-31.4L442.9,303.3L442.9,303.3z M608.6,541.9
				c-27.4,0-49.4,6-49.4,12.7c0,7.3,22,12.7,49.4,12.7s49.4-6,49.4-12.7C658.1,547.2,636,541.9,608.6,541.9L608.6,541.9z
				 M474.3,386.9c0,0,12.7,100.9,17.4,121.6c4.7,20.7,24.7,48.8,38.8,42.8c6-2.7,14.7-9.4,24.1-14.7c14-8,19.4-9.4,35.4-6
				c6.7,1.3,14,2.7,21.4,2c17.4-1.3,27.4-4.7,34.7-4c22.7,2,19.4,21.4,42.1,22c29.4,0.7,40.1-48.8,40.1-48.8l16-116.9
				c18.7-18,18-54.8,18-54.8s-0.7-14-11.4-30.7c-10.7-17.4-30.7-8-30.7-8c-22,37.4-190.4,2.7-210.5-4.7c-20-7.3-42.8-4-51.4,36.1
				C449.6,362.1,474.3,386.9,474.3,386.9z"/>
		</g>
	</g>
</g>
</svg>
