<?xml version="1.0" encoding="utf-8"?>
<!-- Generator: Adobe Illustrator 18.1.0, SVG Export Plug-In . SVG Version: 6.00 Build 0)  -->
<svg version="1.1" id="Livello_1" xmlns="http://www.w3.org/2000/svg" xmlns:xlink="http://www.w3.org/1999/xlink" x="0px" y="0px"
	 viewBox="0 0 1190.6 841.9" enable-background="new 0 0 1190.6 841.9" xml:space="preserve">
<circle fill="#FFFFFF" cx="595.3" cy="420.9" r="420.9"/>
<g>
	<g>
		<defs>
			<circle id="SVGID_1_" cx="595.3" cy="420.9" r="420.9"/>
		</defs>
		<clipPath id="SVGID_2_">
			<use xlink:href="#SVGID_1_"  overflow="visible"/>
		</clipPath>
		<g clip-path="url(#SVGID_2_)">
			<path fill="#3A3B39" d="M491,560.6c0,0-16,2.7-44.1-35.4c-28.7-38.1-60.1-108.9-34.1-201.8c24.7-86.9,52.8-153.7,90.9-150.3
				c2.7,0,5.3,0.7,8,2c42.1,14.7,81.5,50.8,92.2,65.5C614,255.9,491,560.6,491,560.6z"/>
			<g>
				<path fill="#FEC49C" d="M520.4,597.3l8,34.7c8,35.4,7.3,38.1-22,52.8c-48.1,24.7-131.6,38.8-160.4,85.5
					c-10.7,17.4-11.4,38.1-11.4,71.5c173.7,0,347.4,0,521.8,0c0-34.1-0.7-54.8-11.4-71.5c-28.7-46.1-112.3-60.1-160.4-85.5
					c-29.4-15.4-30.1-17.4-22-52.8l8-34.7C571.2,545.2,619.3,545.2,520.4,597.3z"/>
				<path fill="#D2A487" d="M700.8,692.9c0,0-26.1,26.1-54.8,26.1c-28.7,0-93.5-45.4-120.3-96.2l-9.4-41.4l100.2-42.8l70.2,41.4
					l-16.7,18l-11.4,56.8c0,0-4.7,15.4,16.7,26.1C696.2,690.9,700.8,692.9,700.8,692.9z"/>
				<g>
					<path fill="#FEC49C" d="M461,380.9c-2.7,0-22.7-25.4-36.7-6.7c-13.4,18.7,8.7,113.6,40.1,111.6
						C464.3,485.8,482.4,437,461,380.9z"/>
					<path fill="#FEC49C" d="M729.6,380.9c2.7,0,22.7-25.4,36.7-6.7c13.4,18.7-8.7,113.6-40.1,111.6
						C726.2,485.8,707.5,437,729.6,380.9z"/>
					<path fill="#FEC49C" d="M509.7,595.3c66.8,72.2,103.6,72.2,170.4,0c52.8-56.8,46.1-117.6,49.4-191.1
						c1.3-32.1-1.3-62.8-10.7-87.5c-38.1-101.6-209.8-101.6-247.2,0c-9.4,24.7-12,55.5-10.7,87.5
						C463.6,478.4,457.6,538.5,509.7,595.3z"/>
				</g>
			</g>
			<path fill="#353634" d="M691.5,583.3c107.6-101.6,145.7-242.5,66.1-370.2c-44.8-72.2-132.3-101.6-208.5-64.8
				c-12.7,6-26.1,14-41.4,26.1c0,0,136.3,84.9,167.7,159.7C707.5,408.9,711.5,479.7,691.5,583.3z"/>
			<path fill="#C4495E" d="M461.6,704.2c-44.1,16-94.9,32.7-115.6,66.8c-10.7,16.7-11.4,37.4-11.4,70.8h219.2l-49.4-57.5l-40.8-74.2
				L461.6,704.2L461.6,704.2z M642,841.9h214.5c0-34.1-0.7-54.8-11.4-71.5c-20-32.1-66.8-48.8-109.6-64.8l-77.5,116.3L642,841.9z"/>
			<path fill="#A64358" d="M465.7,702.2c0,0,56.8,114.3,100.2,139.6h-24.7c0,0-56.1-63.5-91.5-134.3L465.7,702.2z"/>
			<path fill="#A64358" d="M724.9,702.2c0,0-56.8,114.3-100.2,139.6h24.7c0,0,56.1-63.5,91.5-134.3L724.9,702.2z"/>
		</g>
	</g>
</g>
</svg>
