<?xml version="1.0" encoding="utf-8"?>
<!-- Generator: Adobe Illustrator 18.1.0, SVG Export Plug-In . SVG Version: 6.00 Build 0)  -->
<svg version="1.1" id="Livello_1" xmlns="http://www.w3.org/2000/svg" xmlns:xlink="http://www.w3.org/1999/xlink" x="0px" y="0px"
	 viewBox="0 0 1190.6 841.9" enable-background="new 0 0 1190.6 841.9" xml:space="preserve">
<circle fill="#FFFFFF" cx="595.9" cy="414.9" r="420.9"/>
<g>
	<g>
		<defs>
			<circle id="SVGID_1_" cx="595.9" cy="414.9" r="420.9"/>
		</defs>
		<clipPath id="SVGID_2_">
			<use xlink:href="#SVGID_1_"  overflow="visible"/>
		</clipPath>
		<g clip-path="url(#SVGID_2_)">
			<g>
				<path fill="#FEC49C" d="M691.5,592c-4,17.4-8,56.1-1.3,74.2c2.7,6.7,133.6,56.8,149,63.5c32.7,12.7,60.8,26.1,73.5,39.4
					c14,15.4,24.1,41.4,24.1,76.2c-264.6,0-403.6,0-667.5,0c0-34.7,10.7-61.5,24.1-76.2c12-13.4,40.8-26.7,73.5-39.4
					c15.4-6,146.3-56.1,149-63.5c6.7-18,2.7-56.8-1.3-74.2C620,535.9,584.6,535.9,691.5,592z"/>
				<path fill="#D2A588" d="M724.2,683.5c0,0-36.1,51.4-64.8,54.8c-42.8,4.7-52.8-9.4-80.8-37.4c-23.4-23.4-52.1-54.1-60.8-75.5
					c0,0-4.7-42.1-8-49.4c-3.3-7.3,78.8-37.4,78.8-37.4l82.9-1.3l19.4,55.5c0,0-10.7,52.1-1.3,74.2L724.2,683.5z"/>
				<path fill="#FEC49C" d="M477,493.1c0,0-25.4,8-43.4-13.4c-18-21.4-51.4-120.3,26.1-106.9L477,493.1z"/>
				<path fill="#FEC49C" d="M731.6,493.1c0,0,25.4,8,43.4-13.4c18-21.4,51.4-120.3-26.1-106.9L731.6,493.1z"/>
				<path fill="#FEC49C" d="M688.2,609.4c-76.2,82.2-98.9,82.2-175.1,0c-50.8-54.1-59.5-111.6-62.8-178.4
					c-3.3-60.8-20-143.7,13.4-183.7c52.1-62.1,221.8-62.1,273.9,0C771,286.6,754.3,370.2,751,431
					C747.6,497.8,738.9,554.6,688.2,609.4z"/>
			</g>
			<path fill="#7D372E" d="M460.3,439c0,0-14.7-64.1-25.4-66.1c0,0-14.7-57.5-7.3-110.9c4.7-35.4,21.4-65.5,50.8-91.5
				c64.8-56.8,187.8-54.8,258.6,12c18,16.7,22,26.7,22.7,50.8v12.7c0,0,21.4,9.4,21.4,43.4s-7.3,83.5-7.3,83.5s-14.7,14-21.4,49.4
				L751,441l-10.7-1.3c0,0,9.4-88.2,7.3-111.6c-2.7-23.4,0.7-37.4-30.1-39.4c0,0-22.7,47.4-155.7,26.1c0,0-65.5-18-86.2,12
				c-21.4,30.1-10,87.5-10,87.5l3.3,25.4L460.3,439z"/>
			<path fill="#EF8243" d="M724.9,683.5c41.4,18,104.2,40.1,114.3,44.1c32.7,13.4,60.8,26.7,73.5,40.1c14,15.4,24.1,42.1,24.1,77.5
				c-264.6,0-403.6,0-667.5,0c0-35.4,10.7-62.1,24.1-77.5c12-13.4,40.8-26.7,73.5-40.1c10-4,70.8-25.4,111.6-43.4
				c38.1,17.4,77.5,26.1,122.9,26.1C645.4,710.9,686.1,701.6,724.9,683.5z"/>
		</g>
	</g>
</g>
</svg>
