<?xml version="1.0" encoding="utf-8"?>
<!-- Generator: Adobe Illustrator 18.1.0, SVG Export Plug-In . SVG Version: 6.00 Build 0)  -->
<svg version="1.1" id="Livello_1" xmlns="http://www.w3.org/2000/svg" xmlns:xlink="http://www.w3.org/1999/xlink" x="0px" y="0px"
	 viewBox="0 0 1190.6 841.9" enable-background="new 0 0 1190.6 841.9" xml:space="preserve">
<circle fill="#FFFFFF" cx="598.6" cy="416.9" r="420.9"/>
<g>
	<g>
		<defs>
			<circle id="SVGID_1_" cx="598.6" cy="416.9" r="420.9"/>
		</defs>
		<clipPath id="SVGID_2_">
			<use xlink:href="#SVGID_1_"  overflow="visible"/>
		</clipPath>
		<g clip-path="url(#SVGID_2_)">
			<polygon fill="#725B50" points="460.3,473.1 501.7,669.5 688.2,654.1 738.9,499.8 			"/>
			<path fill="#FEC49C" d="M524.4,566.6l8,34.7c8,35.4,7.3,38.1-22,52.8c-48.1,24.7-131.6,38.8-160.4,85.5
				c-10.7,16.7-11.4,37.4-11.4,71.5c173.7,0,347.4,0,521.8,0c0-34.1-0.7-54.8-11.4-71.5c-28.7-46.1-112.3-60.1-160.4-85.5
				c-29.4-15.4-30.1-17.4-22-52.8l8-34.7C575.2,514.5,623.3,514.5,524.4,566.6z"/>
			<path fill="#D2A487" d="M704.9,662.2c0,0-26.1,26.1-54.8,26.1s-93.5-45.4-120.3-96.2l-10-41.4L620,507.8l70.2,41.4l-16.7,18
				l-12,56.8c0,0-4.7,15.4,16.7,26.1C700.2,660.1,704.9,662.2,704.9,662.2z"/>
			<path fill="#FEC49C" d="M467,380.9c-2.7,0-22.7-25.4-36.7-6.7c-13.4,18.7,8.7,113.6,40.1,111.6C470.3,486.4,489,437,467,380.9z"
				/>
			<path fill="#FEC49C" d="M733.6,380.9c2.7,0,22.7-25.4,36.7-6.7c13.4,18.7-8.7,113.6-40.1,111.6
				C730.2,486.4,712.2,437,733.6,380.9z"/>
			<path fill="#FEC49C" d="M513.8,564.6c66.8,72.2,103.6,72.2,170.4,0c52.8-56.8,46.1-117.6,49.4-191.1c1.3-32.1-1.3-62.8-10.7-87.5
				c-38.1-101.6-209.8-101.6-247.2,0c-9.4,24.7-12,55.5-10.7,87.5C467.7,447.7,461.6,507.8,513.8,564.6z"/>
			<path fill="#604530" d="M579.9,124.3c0,0,69.5-34.7,131.6,21.4c62.1,55.5,74.2,148.3,67.5,218.5c-6,70.2,9.4,305.4,29.4,340.8
				l0,0c-37.4-21.4-87.5-33.4-120.9-50.8c-2.7-1.3-5.3-2.7-7.3-4c16-32.1,36.1-84.9,42.1-155l6.7-37.4c0,0-189.1-90.2-204.5-229.8
				C534.5,188.4,552.5,153.7,579.9,124.3z"/>
			<path fill="#80B790" d="M506.4,645.4c-48.1,24.7-132.3,40.1-161,86.2c-10.7,16.7-16.7,74.2-16.7,108.2c179.7,0,359.5,0,539.2,0
				c0-34.1-6-91.5-16.7-108.2c-28.7-46.1-112.9-61.5-161-86.2c-13.4-6.7-22-15.4-27.4-12c-7.3,4-6.7,24.1-12,40.1l-52.8,28.7
				l-52.8-28.7c-4.7-16-4.7-36.1-12-40.1C528.5,630.1,519.8,638.1,506.4,645.4z"/>
			<path fill="#604530" d="M579.9,124.3l-54.8,103.6c0,0-55.5,63.5-60.8,145l0.7,7.3c-7.3-6-22-18-32.7-3.3
				c-13.4,18.7,8.7,113.6,40.1,111.6c5.3,27.4,24.7,240.5,79.5,351.5H342.7c0,0,83.5-127,66.1-422.3c-8.7-146.3,2-313.4,169-293.3
				C579.2,124.3,579.9,124.3,579.9,124.3z"/>
			<rect x="583.9" y="702.2" fill="#FDFCFF" width="29.4" height="137"/>
			<path fill="#FDFCFF" d="M528.5,590.7l-12,28.1l-0.7,64.1l14.7-40.1c0,0-2.7,44.8,54.8,59.5c2,0.7,4.7,1.3,7.3,1.3
				c0,0,18.7,3.3,20.7,16.7c0,0,6.7-11.4-28.7-30.7C548.5,669.5,537.8,622.1,528.5,590.7z"/>
			<path fill="#B6C4C4" d="M525.1,623.4c0,0-2.7,1.3-4,17.4s-1.3,32.7-1.3,32.7l11.4-31.4C530.5,642.8,529.8,620.7,525.1,623.4z"/>
			<path fill="#FDFCFF" d="M668.8,590.7l12,28.1l0.7,64.1l-14.7-40.1c0,0-4,47.4-54.8,69.5c-4-4.7-8-10-13.4-13.4
				c4-2.7,8.7-6,14.7-9.4C648.7,669.5,659.4,622.1,668.8,590.7z"/>
			<path fill="#B6C4C4" d="M672.1,623.4c0,0,2.7,1.3,4,17.4s1.3,32.7,1.3,32.7l-11.4-31.4C666.8,642.8,667.4,620.7,672.1,623.4z"/>
			<circle fill="#B6C4C4" cx="598.6" cy="729" r="6.7"/>
			<circle fill="#B6C4C4" cx="598.6" cy="792.4" r="6.7"/>
		</g>
	</g>
</g>
</svg>
