<?xml version="1.0" encoding="utf-8"?>
<!-- Generator: Adobe Illustrator 18.1.0, SVG Export Plug-In . SVG Version: 6.00 Build 0)  -->
<svg version="1.1" id="Livello_1" xmlns="http://www.w3.org/2000/svg" xmlns:xlink="http://www.w3.org/1999/xlink" x="0px" y="0px"
	 viewBox="0 0 1190.6 841.9" enable-background="new 0 0 1190.6 841.9" xml:space="preserve">
<circle fill="#FFFFFF" cx="598.6" cy="414.9" r="420.9"/>
<g>
	<g>
		<defs>
			<circle id="SVGID_1_" cx="598.6" cy="414.9" r="420.9"/>
		</defs>
		<clipPath id="SVGID_2_">
			<use xlink:href="#SVGID_1_"  overflow="visible"/>
		</clipPath>
		<g clip-path="url(#SVGID_2_)">
			<path fill="#7D372E" d="M786.4,414.3c-2,110.2-38.8,219.8-62.8,218.5c-86.2,1.3-168.4,1.3-255.9,0
				c-24.1,0.7-62.8-108.2-62.8-218.5c0.7-157,40.1-220.5,111.6-255.2c50.1-24.1,120.3-26.7,169.7,1.3
				C749.6,197.1,788.4,286,786.4,414.3z"/>
			<path fill="#FEC49C" d="M520.4,594l8,36.1c8,36.7,7.3,39.4-23.4,55.5c-50.1,26.1-136.3,40.8-166.4,88.9
				c-10.7,17.4-11.4,38.8-11.4,74.2c180.4,0,361.5,0,541.9,0c0-35.4-0.7-56.8-11.4-74.2c-30.1-48.1-116.3-62.8-166.4-88.9
				c-30.7-16-31.4-18-23.4-55.5l8-36.1C573.2,539.2,623.3,539.2,520.4,594z"/>
			<path fill="#D2A487" d="M708.2,692.9c0,0-26.7,26.7-56.8,27.4c-30.1,0-97.6-47.4-124.9-100.2l-10-42.8l104.2-44.8l72.8,42.8
				L676.1,594l-12.7,59.5c0,0-4.7,16,17.4,26.7C703.5,690.9,708.2,692.9,708.2,692.9z"/>
			<path fill="#FEC49C" d="M509.7,592c69.5,75.5,108.2,75.5,177.1,0c54.8-58.8,48.1-122.3,50.8-199.1c1.3-33.4-1.3-64.8-11.4-90.9
				c-39.4-105.6-217.8-105.6-257.2,0c-9.4,26.1-12.7,57.5-11.4,90.9C461.6,469.7,455,532.5,509.7,592z"/>
			<path fill="#7D372E" d="M478.3,361.5h241.2c2,69.5,0.7,137-8.7,201.8l32.1,0.7l8.7-253.9l-92.2-122.3l-177.7,28.7l-32.7,109.6
				l8.7,231.2l28.7,7.3C479,498.5,478.3,426.3,478.3,361.5z"/>
			<path fill="#FFCC61" d="M478.3,697.6l-18,6.7l-38.8,143.7h362.1l-38.8-140.3l-16-6c-20,60.8-67.5,102.9-124.9,102.9
				C547.2,804.5,497.7,759,478.3,697.6z"/>
		</g>
	</g>
</g>
</svg>
